<svg width="44" height="38" viewBox="0 0 44 38" fill="none" xmlns="http://www.w3.org/2000/svg">
<path d="M19.1975 23.3225L14.5425 18.6675C14.2575 18.3825 13.9091 18.24 13.4975 18.24C13.0859 18.24 12.7216 18.3984 12.405 18.715C12.12 19 11.9775 19.3484 11.9775 19.76C11.9775 20.1716 12.12 20.52 12.405 20.805L18.2 26.6475C18.485 26.9325 18.8175 27.075 19.1975 27.075C19.5775 27.075 19.91 26.9325 20.195 26.6475L31.5475 15.295C31.8641 14.9784 32.0225 14.6141 32.0225 14.2025C32.0225 13.7909 31.8641 13.4266 31.5475 13.11C31.2309 12.825 30.8587 12.6904 30.4312 12.7062C30.0037 12.7221 29.6475 12.8725 29.3625 13.1575L19.1975 23.3225ZM22 38C19.4034 38 16.9491 37.5012 14.6375 36.5037C12.3259 35.5062 10.3071 34.1446 8.58125 32.4187C6.85541 30.6929 5.49375 28.6741 4.49625 26.3625C3.49875 24.0509 3 21.5966 3 19C3 16.3716 3.49875 13.9016 4.49625 11.59C5.49375 9.27836 6.85541 7.2675 8.58125 5.5575C10.3071 3.8475 12.3259 2.49375 14.6375 1.49625C16.9491 0.49875 19.4034 0 22 0C24.6284 0 27.0984 0.49875 29.41 1.49625C31.7216 2.49375 33.7325 3.8475 35.4425 5.5575C37.1525 7.2675 38.5062 9.27836 39.5037 11.59C40.5012 13.9016 41 16.3716 41 19C41 21.5966 40.5012 24.0509 39.5037 26.3625C38.5062 28.6741 37.1525 30.6929 35.4425 32.4187C33.7325 34.1446 31.7216 35.5062 29.41 36.5037C27.0984 37.5012 24.6284 38 22 38ZM22 35.15C26.4966 35.15 30.3125 33.5746 33.4475 30.4237C36.5825 27.2729 38.15 23.465 38.15 19C38.15 14.5034 36.5825 10.6875 33.4475 7.5525C30.3125 4.4175 26.4966 2.85 22 2.85C17.535 2.85 13.7271 4.4175 10.5763 7.5525C7.42541 10.6875 5.85 14.5034 5.85 19C5.85 23.465 7.42541 27.2729 10.5763 30.4237C13.7271 33.5746 17.535 35.15 22 35.15Z" fill="#19AC00"/>
</svg>
