<svg width="20" height="20" viewBox="0 0 20 20" fill="none" xmlns="http://www.w3.org/2000/svg">
<mask id="path-1-inside-1_3916_30827" fill="white">
<path d="M14.5446 11C15.2943 11 15.9541 10.59 16.2939 9.97L19.8726 3.48C20.2425 2.82 19.7627 2 19.0029 2H4.20844L3.26879 0H0V2H1.99926L5.59792 9.59L4.24842 12.03C3.51869 13.37 4.47834 15 5.99777 15H17.9933V13H5.99777L7.09736 11H14.5446ZM5.15808 4H17.3036L14.5446 9H7.5272L5.15808 4ZM5.99777 16C4.89818 16 4.00851 16.9 4.00851 18C4.00851 19.1 4.89818 20 5.99777 20C7.09736 20 7.99703 19.1 7.99703 18C7.99703 16.9 7.09736 16 5.99777 16ZM15.9941 16C14.8945 16 14.0048 16.9 14.0048 18C14.0048 19.1 14.8945 20 15.9941 20C17.0937 20 17.9933 19.1 17.9933 18C17.9933 16.9 17.0937 16 15.9941 16Z"/>
</mask>
<path d="M14.5446 11C15.2943 11 15.9541 10.59 16.2939 9.97L19.8726 3.48C20.2425 2.82 19.7627 2 19.0029 2H4.20844L3.26879 0H0V2H1.99926L5.59792 9.59L4.24842 12.03C3.51869 13.37 4.47834 15 5.99777 15H17.9933V13H5.99777L7.09736 11H14.5446ZM5.15808 4H17.3036L14.5446 9H7.5272L5.15808 4ZM5.99777 16C4.89818 16 4.00851 16.9 4.00851 18C4.00851 19.1 4.89818 20 5.99777 20C7.09736 20 7.99703 19.1 7.99703 18C7.99703 16.9 7.09736 16 5.99777 16ZM15.9941 16C14.8945 16 14.0048 16.9 14.0048 18C14.0048 19.1 14.8945 20 15.9941 20C17.0937 20 17.9933 19.1 17.9933 18C17.9933 16.9 17.0937 16 15.9941 16Z" fill="#5C5B5B"/>
<path d="M16.2939 9.97L12.7912 8.03852L12.7864 8.04722L16.2939 9.97ZM19.8726 3.48L16.3832 1.52453L16.3765 1.5365L16.3698 1.54853L19.8726 3.48ZM4.20844 2L0.588099 3.70093L1.66826 6H4.20844V2ZM3.26879 0L6.88912 -1.70093L5.80896 -4H3.26879V0ZM0 0V-4H-4V0H0ZM0 2H-4V6H0V2ZM1.99926 2L5.61358 0.286332L4.52956 -2H1.99926V2ZM5.59792 9.59L9.09823 11.5259L10.0913 9.73037L9.21225 7.87633L5.59792 9.59ZM4.24842 12.03L0.748111 10.0941L0.741788 10.1055L0.73554 10.117L4.24842 12.03ZM17.9933 15V19H21.9933V15H17.9933ZM17.9933 13H21.9933V9H17.9933V13ZM5.99777 13L2.49261 11.0729L-0.766103 17H5.99777V13ZM7.09736 11V7H4.73186L3.5922 9.07287L7.09736 11ZM5.15808 4V6.35783e-08H-1.16351L1.54333 5.71276L5.15808 4ZM17.3036 4L20.8058 5.9325L24.0793 6.35783e-08H17.3036V4ZM14.5446 9V13H16.906L18.0468 10.9325L14.5446 9ZM7.5272 9L3.91245 10.7128L4.9962 13H7.5272V9ZM14.5446 15C16.7803 15 18.7716 13.7715 19.8015 11.8928L12.7864 8.04722C13.1365 7.40853 13.8084 7 14.5446 7V15ZM19.7967 11.9015L23.3754 5.41147L16.3698 1.54853L12.7912 8.03853L19.7967 11.9015ZM23.3621 5.43547C25.2293 2.10353 22.8127 -2 19.0029 -2V6C16.7126 6 15.2557 3.53647 16.3832 1.52453L23.3621 5.43547ZM19.0029 -2H4.20844V6H19.0029V-2ZM7.82877 0.299073L6.88912 -1.70093L-0.351552 1.70093L0.588099 3.70093L7.82877 0.299073ZM3.26879 -4H0V4H3.26879V-4ZM-4 0V2H4V0H-4ZM0 6H1.99926V-2H0V6ZM-1.61507 3.71367L1.9836 11.3037L9.21225 7.87633L5.61358 0.286332L-1.61507 3.71367ZM2.09761 7.65407L0.748111 10.0941L7.74873 13.9659L9.09823 11.5259L2.09761 7.65407ZM0.73554 10.117C-1.42653 14.0872 1.40327 19 5.99777 19V11C7.5534 11 8.46391 12.6528 7.7613 13.943L0.73554 10.117ZM5.99777 19H17.9933V11H5.99777V19ZM21.9933 15V13H13.9933V15H21.9933ZM17.9933 9H5.99777V17H17.9933V9ZM9.50294 14.9271L10.6025 12.9271L3.5922 9.07287L2.49261 11.0729L9.50294 14.9271ZM7.09736 15H14.5446V7H7.09736V15ZM5.15808 8H17.3036V6.35783e-08H5.15808V8ZM13.8014 2.0675L11.0424 7.0675L18.0468 10.9325L20.8058 5.9325L13.8014 2.0675ZM14.5446 5H7.5272V13H14.5446V5ZM11.142 7.28724L8.77284 2.28724L1.54333 5.71276L3.91245 10.7128L11.142 7.28724ZM5.99777 12C2.6616 12 0.00851171 14.7184 0.00851171 18H8.00851C8.00851 19.0816 7.13477 20 5.99777 20V12ZM0.00851171 18C0.00851171 21.2816 2.6616 24 5.99777 24V16C7.13477 16 8.00851 16.9184 8.00851 18H0.00851171ZM5.99777 24C9.3079 24 11.997 21.3077 11.997 18H3.99703C3.99703 16.8923 4.88683 16 5.99777 16V24ZM11.997 18C11.997 14.6923 9.3079 12 5.99777 12V20C4.88683 20 3.99703 19.1077 3.99703 18H11.997ZM15.9941 12C12.6579 12 10.0048 14.7184 10.0048 18H18.0048C18.0048 19.0816 17.1311 20 15.9941 20V12ZM10.0048 18C10.0048 21.2816 12.6579 24 15.9941 24V16C17.1311 16 18.0048 16.9184 18.0048 18H10.0048ZM15.9941 24C19.3042 24 21.9933 21.3077 21.9933 18H13.9933C13.9933 16.8923 14.8831 16 15.9941 16V24ZM21.9933 18C21.9933 14.6923 19.3042 12 15.9941 12V20C14.8831 20 13.9933 19.1077 13.9933 18H21.9933Z" fill="#5C5B5B" mask="url(#path-1-inside-1_3916_30827)"/>
</svg>
