<svg width="28" height="28" viewBox="0 0 28 28" fill="none" xmlns="http://www.w3.org/2000/svg">
<g id="clarity:dot-circle-line" clip-path="url(#clip0_3779_28119)">
<path id="Vector" d="M13.9991 26.4446C11.5379 26.4446 9.13185 25.7147 7.08537 24.3473C5.0389 22.9799 3.44386 21.0363 2.50197 18.7624C1.56008 16.4885 1.31364 13.9863 1.79381 11.5723C2.27398 9.15834 3.4592 6.94095 5.19959 5.20056C6.93997 3.46018 9.15736 2.27496 11.5713 1.79479C13.9853 1.31461 16.4875 1.56106 18.7614 2.50295C21.0353 3.44484 22.9789 5.03987 24.3463 7.08635C25.7137 9.13283 26.4436 11.5388 26.4436 14.0001C26.4436 17.3006 25.1325 20.4659 22.7987 22.7997C20.4649 25.1335 17.2996 26.4446 13.9991 26.4446ZM13.9991 3.11123C11.8455 3.11123 9.74026 3.74985 7.9496 4.94633C6.15893 6.14282 4.76327 7.84343 3.93912 9.83312C3.11496 11.8228 2.89933 14.0122 3.31948 16.1244C3.73963 18.2367 4.77669 20.1769 6.29953 21.6997C7.82237 23.2226 9.76258 24.2596 11.8748 24.6798C13.9871 25.0999 16.1765 24.8843 18.1661 24.0601C20.1558 23.236 21.8564 21.8403 23.0529 20.0497C24.2494 18.259 24.888 16.1537 24.888 14.0001C24.888 11.1122 23.7408 8.34257 21.6987 6.30051C19.6567 4.25844 16.8871 3.11123 13.9991 3.11123Z" fill="#0011FF"/>
</g>
<defs>
<clipPath id="clip0_3779_28119">
<rect width="28" height="28" fill="white"/>
</clipPath>
</defs>
</svg>
