<svg width="47" height="40" viewBox="0 0 47 40" fill="none" xmlns="http://www.w3.org/2000/svg">
<g id="ep:select">
<path id="Vector" d="M3.83531 16.7656C4.37032 16.2874 5.09585 16.0187 5.85236 16.0187C6.60886 16.0187 7.3344 16.2874 7.86941 16.7656L17.9575 25.7859L38.128 7.74795C38.3929 7.51094 38.7074 7.3229 39.0535 7.19457C39.3997 7.06623 39.7707 7.00012 40.1454 7C40.5202 6.99988 40.8913 7.06576 41.2375 7.19388C41.5838 7.32199 41.8984 7.50983 42.1635 7.74668C42.4286 7.98352 42.6389 8.26473 42.7824 8.57424C42.9259 8.88376 42.9999 9.21552 43 9.55059C43.0001 9.88565 42.9265 10.2175 42.7832 10.5271C42.6399 10.8367 42.4298 11.118 42.1649 11.355L17.9575 33L3.83531 20.3727C3.30046 19.8943 3 19.2456 3 18.5692C3 17.8927 3.30046 17.244 3.83531 16.7656Z" fill="#20B108"/>
</g>
</svg>
