<svg width="50" height="50" viewBox="0 0 50 50" fill="none" xmlns="http://www.w3.org/2000/svg">
<g id="lets-icons:video-fill">
<path id="Vector" fill-rule="evenodd" clip-rule="evenodd" d="M25 43.75C27.4623 43.75 29.9005 43.265 32.1753 42.3227C34.4502 41.3805 36.5172 39.9993 38.2583 38.2583C39.9993 36.5172 41.3805 34.4502 42.3227 32.1753C43.265 29.9005 43.75 27.4623 43.75 25C43.75 22.5377 43.265 20.0995 42.3227 17.8247C41.3805 15.5498 39.9993 13.4828 38.2583 11.7417C36.5172 10.0006 34.4502 8.61953 32.1753 7.67726C29.9005 6.73498 27.4623 6.25 25 6.25C20.0272 6.25 15.2581 8.22544 11.7417 11.7417C8.22544 15.2581 6.25 20.0272 6.25 25C6.25 29.9728 8.22544 34.7419 11.7417 38.2583C15.2581 41.7746 20.0272 43.75 25 43.75ZM22.4646 16.6458L34.2229 23.1792C34.5475 23.3596 34.818 23.6236 35.0063 23.9438C35.1946 24.2639 35.2939 24.6286 35.2939 25C35.2939 25.3714 35.1946 25.7361 35.0063 26.0562C34.818 26.3764 34.5475 26.6404 34.2229 26.8208L22.4646 33.3542C22.0839 33.5658 21.6544 33.6743 21.2189 33.6688C20.7833 33.6634 20.3567 33.5443 19.9814 33.3233C19.606 33.1022 19.295 32.7869 19.079 32.4087C18.863 32.0304 18.7496 31.6023 18.75 31.1667V18.8333C18.7496 18.3977 18.863 17.9696 19.079 17.5913C19.295 17.2131 19.606 16.8978 19.9814 16.6767C20.3567 16.4557 20.7833 16.3366 21.2189 16.3312C21.6544 16.3257 22.0839 16.4342 22.4646 16.6458Z" fill="#0011FF"/>
</g>
</svg>
